<?xml version="1.0" standalone="no"?>
<!DOCTYPE svg PUBLIC "-//W3C//DTD SVG 20010904//EN"
 "http://www.w3.org/TR/2001/REC-SVG-20010904/DTD/svg10.dtd">
<svg version="1.0" xmlns="http://www.w3.org/2000/svg"
 width="293.000000pt" height="293.000000pt" viewBox="0 0 293.000000 293.000000"
 preserveAspectRatio="xMidYMid meet">
<metadata>
Created by potrace 1.14, written by Peter Selinger 2001-2017
</metadata>
<g transform="translate(0.000000,293.000000) scale(0.100000,-0.100000)"
fill="#000000" stroke="none">
<path d="M1223 2909 c-118 -29 -228 -111 -277 -206 -38 -76 -53 -223 -32 -324
l8 -37 -312 0 c-171 0 -314 -2 -317 -5 -9 -9 26 -146 63 -244 134 -357 389
-600 719 -684 l70 -18 -60 -1 c-33 -1 -73 -4 -89 -6 -64 -11 -116 -74 -116
-141 1 -61 67 -154 171 -238 14 -11 45 -36 69 -56 l45 -36 -2 -314 c-1 -173
-2 -317 -2 -320 -1 -4 -117 -32 -143 -34 -3 0 -10 -3 -14 -7 -4 -5 -15 -8 -23
-8 -28 0 -156 -66 -195 -100 -39 -35 -70 -85 -62 -99 3 -5 422 -8 931 -8 l925
1 0 226 0 226 -292 0 c-161 -1 -302 0 -313 2 -18 3 -20 12 -21 80 -2 128 -60
220 -178 283 -26 14 -46 31 -47 41 -1 10 -1 29 -1 43 0 66 -37 60 377 60 l375
-1 0 51 c1 85 1 308 1 348 l-1 37 -282 0 -283 0 36 21 c49 29 73 72 72 130 -1
69 -36 130 -130 228 -46 47 -83 87 -83 89 0 1 173 2 385 2 l385 0 0 225 c0
173 -3 225 -12 226 -7 0 -323 0 -701 0 l-688 1 -15 23 c-9 13 -20 52 -26 87
-27 160 62 247 255 246 71 0 84 -3 145 -37 111 -61 136 -70 173 -66 50 6 72
21 102 68 49 74 31 192 -35 240 -25 18 -45 20 -255 22 -191 2 -240 -1 -300
-16z"/>
</g>
</svg>
